<svg xmlns="http://www.w3.org/2000/svg" width="1" height="1" style="position:absolute;pointer-events:none">
	<symbol id="icon-dir" viewBox="0 0 20 20">
		<path d="M8.886 3.658A.5.5 0 0 0 9.36 4H17a2 2 0 0 1 2 2v10a2 2 0 0 1-2 2H3a2 2 0 0 1-2-2V3a2 2 0 0 1 2-2h3.558a2 2 0 0 1 1.898 1.368l.43 1.29ZM3 16.5h14a.5.5 0 0 0 .5-.5V6a.5.5 0 0 0-.5-.5H9.36a2 2 0 0 1-1.897-1.368l-.43-1.29a.5.5 0 0 0-.475-.342H3a.5.5 0 0 0-.5.5v13a.5.5 0 0 0 .5.5Z"/>
	</symbol>
	<symbol id="icon-dir-link" viewBox="0 0 20 20">
		<path d="M8.886 3.658A.5.5 0 0 0 9.36 4H17a2 2 0 0 1 2 2v10a2 2 0 0 1-2 2H3a2 2 0 0 1-2-2V3a2 2 0 0 1 2-2h3.558a2 2 0 0 1 1.898 1.368l.43 1.29ZM3 16.5h14a.5.5 0 0 0 .5-.5V6a.5.5 0 0 0-.5-.5H9.36a2 2 0 0 1-1.897-1.368l-.43-1.29a.5.5 0 0 0-.475-.342H3a.5.5 0 0 0-.5.5v13a.5.5 0 0 0 .5.5Z M7.5 9.75a.75.75 0 0 0-1.5 0V11a2 2 0 0 0 2 2h3v1a.5.5 0 0 0 .812.39l2.5-2a.5.5 0 0 0 0-.78l-2.5-2A.5.5 0 0 0 11 10v1.5H8a.5.5 0 0 1-.5-.5V9.75Z"/>
	</symbol>
	<symbol id="icon-file" viewBox="0 0 20 20">
		<path fill-rule="evenodd" d="M9.5 6.75V2.5H4a.5.5 0 0 0-.5.5v14a.5.5 0 0 0 .5.5h12a.5.5 0 0 0 .5-.5V8.5h-5.25A1.75 1.75 0 0 1 9.5 6.75ZM11 2.976V6.75c0 .138.112.25.25.25h4.445L11 2.976ZM2 3v14a2 2 0 0 0 2 2h12a2 2 0 0 0 2-2V7.92a2 2 0 0 0-.698-1.519l-5.74-4.92A2 2 0 0 0 10.26 1H4a2 2 0 0 0-2 2Z"/>
	</symbol>
	<symbol id="icon-file-link" viewBox="0 0 20 20">
		<path fill-rule="evenodd" d="M9.5 6.75V2.5H4a.5.5 0 0 0-.5.5v14a.5.5 0 0 0 .5.5h12a.5.5 0 0 0 .5-.5V8.5h-5.25A1.75 1.75 0 0 1 9.5 6.75ZM11 2.976V6.75c0 .138.112.25.25.25h4.445L11 2.976ZM2 3v14a2 2 0 0 0 2 2h12a2 2 0 0 0 2-2V7.92a2 2 0 0 0-.698-1.519l-5.74-4.92A2 2 0 0 0 10.26 1H4a2 2 0 0 0-2 2Z M7.5 10.75a.75.75 0 0 0-1.5 0V12a2 2 0 0 0 2 2h3v1a.5.5 0 0 0 .812.39l2.5-2a.5.5 0 0 0 0-.78l-2.5-2A.5.5 0 0 0 11 11v1.5H8a.5.5 0 0 1-.5-.5v-1.25Z"/>
	</symbol>
</svg>
