<svg xmlns="http://www.w3.org/2000/svg" width="1" height="1" style="position:absolute;pointer-events:none">
	<symbol id="icon-dir" viewBox="0 0 20 20">
		<path d="M8.886 3.658A.5.5 0 0 0 9.36 4H17a2 2 0 0 1 2 2v10a2 2 0 0 1-2 2H3a2 2 0 0 1-2-2V3a2 2 0 0 1 2-2h3.558a2 2 0 0 1 1.898 1.368l.43 1.29ZM3 16.5h14a.5.5 0 0 0 .5-.5V6a.5.5 0 0 0-.5-.5H9.36a2 2 0 0 1-1.897-1.368l-.43-1.29a.5.5 0 0 0-.475-.342H3a.5.5 0 0 0-.5.5v13a.5.5 0 0 0 .5.5Z"/>
	</symbol>
	<symbol id="icon-file" viewBox="0 0 20 20">
		<path fill-rule="evenodd" d="M2 17V3a2 2 0 0 1 2-2h5.754a2 2 0 0 1 1.31.489l6.246 5.413A2 2 0 0 1 18 8.413V17a2 2 0 0 1-2 2H4a2 2 0 0 1-2-2ZM9 2.5H4a.5.5 0 0 0-.5.5v14a.5.5 0 0 0 .5.5h12a.5.5 0 0 0 .5-.5V9h-5.75A1.75 1.75 0 0 1 9 7.25V2.5Zm1.75 5h4.96L10.5 2.985V7.25c0 .138.112.25.25.25Z"/>
	</symbol>
</svg>
